<mxfile host="app.diagrams.net" modified="2024-03-02T13:31:39.373Z" agent="Mozilla/5.0 (Windows NT 10.0; Win64; x64; rv:123.0) Gecko/20100101 Firefox/123.0" etag="1s7WKanVDTXkVWkDszl4" version="21.7.5" type="device">
  <diagram name="Page-1" id="5OJK_XPvDOAbDXRNUU47">
    <mxGraphModel dx="2140" dy="558" grid="1" gridSize="10" guides="1" tooltips="1" connect="1" arrows="1" fold="1" page="1" pageScale="1" pageWidth="850" pageHeight="1100" math="0" shadow="0">
      <root>
        <mxCell id="0" />
        <mxCell id="1" parent="0" />
        <mxCell id="xVHBVLIF-bn0H8TLXXED-4" value="" style="edgeStyle=orthogonalEdgeStyle;rounded=0;orthogonalLoop=1;jettySize=auto;html=1;" edge="1" parent="1" target="xVHBVLIF-bn0H8TLXXED-2">
          <mxGeometry relative="1" as="geometry">
            <mxPoint x="-540" y="555" as="sourcePoint" />
          </mxGeometry>
        </mxCell>
        <mxCell id="xVHBVLIF-bn0H8TLXXED-28" value="" style="edgeStyle=orthogonalEdgeStyle;rounded=0;orthogonalLoop=1;jettySize=auto;html=1;" edge="1" parent="1" source="xVHBVLIF-bn0H8TLXXED-2">
          <mxGeometry relative="1" as="geometry">
            <mxPoint x="-540" y="555" as="targetPoint" />
          </mxGeometry>
        </mxCell>
        <mxCell id="xVHBVLIF-bn0H8TLXXED-60" value="" style="edgeStyle=orthogonalEdgeStyle;rounded=0;orthogonalLoop=1;jettySize=auto;html=1;" edge="1" parent="1" source="xVHBVLIF-bn0H8TLXXED-2" target="xVHBVLIF-bn0H8TLXXED-59">
          <mxGeometry relative="1" as="geometry" />
        </mxCell>
        <mxCell id="xVHBVLIF-bn0H8TLXXED-2" value="Load Balancer" style="rounded=0;whiteSpace=wrap;html=1;" vertex="1" parent="1">
          <mxGeometry x="-500" y="515" width="80" height="60" as="geometry" />
        </mxCell>
        <mxCell id="xVHBVLIF-bn0H8TLXXED-20" value="" style="edgeStyle=orthogonalEdgeStyle;rounded=0;orthogonalLoop=1;jettySize=auto;html=1;" edge="1" parent="1" source="xVHBVLIF-bn0H8TLXXED-5" target="xVHBVLIF-bn0H8TLXXED-6">
          <mxGeometry relative="1" as="geometry" />
        </mxCell>
        <mxCell id="xVHBVLIF-bn0H8TLXXED-5" value="Travel agency" style="rounded=0;whiteSpace=wrap;html=1;" vertex="1" parent="1">
          <mxGeometry x="-275" y="395" width="120" height="60" as="geometry" />
        </mxCell>
        <mxCell id="xVHBVLIF-bn0H8TLXXED-22" value="" style="edgeStyle=orthogonalEdgeStyle;rounded=0;orthogonalLoop=1;jettySize=auto;html=1;" edge="1" parent="1" source="xVHBVLIF-bn0H8TLXXED-6" target="xVHBVLIF-bn0H8TLXXED-7">
          <mxGeometry relative="1" as="geometry" />
        </mxCell>
        <mxCell id="xVHBVLIF-bn0H8TLXXED-6" value="Travel Package" style="rounded=0;whiteSpace=wrap;html=1;" vertex="1" parent="1">
          <mxGeometry x="-275" y="475" width="120" height="60" as="geometry" />
        </mxCell>
        <mxCell id="xVHBVLIF-bn0H8TLXXED-12" value="" style="edgeStyle=orthogonalEdgeStyle;rounded=0;orthogonalLoop=1;jettySize=auto;html=1;" edge="1" parent="1" source="xVHBVLIF-bn0H8TLXXED-7" target="xVHBVLIF-bn0H8TLXXED-8">
          <mxGeometry relative="1" as="geometry" />
        </mxCell>
        <mxCell id="xVHBVLIF-bn0H8TLXXED-7" value="Destination" style="rounded=0;whiteSpace=wrap;html=1;" vertex="1" parent="1">
          <mxGeometry x="-275" y="555" width="120" height="60" as="geometry" />
        </mxCell>
        <mxCell id="xVHBVLIF-bn0H8TLXXED-26" value="" style="edgeStyle=orthogonalEdgeStyle;rounded=0;orthogonalLoop=1;jettySize=auto;html=1;entryX=1;entryY=0.5;entryDx=0;entryDy=0;exitX=0.5;exitY=1;exitDx=0;exitDy=0;" edge="1" parent="1" source="xVHBVLIF-bn0H8TLXXED-43" target="xVHBVLIF-bn0H8TLXXED-59">
          <mxGeometry relative="1" as="geometry">
            <mxPoint x="-275" y="705" as="sourcePoint" />
            <mxPoint x="-360" y="545" as="targetPoint" />
            <Array as="points">
              <mxPoint x="-210" y="725" />
              <mxPoint x="-350" y="725" />
            </Array>
          </mxGeometry>
        </mxCell>
        <mxCell id="xVHBVLIF-bn0H8TLXXED-8" value="Activities" style="rounded=0;whiteSpace=wrap;html=1;" vertex="1" parent="1">
          <mxGeometry x="-275" y="635" width="120" height="60" as="geometry" />
        </mxCell>
        <mxCell id="xVHBVLIF-bn0H8TLXXED-35" value="&lt;font style=&quot;font-size: 14px;&quot;&gt;Application Server&lt;br&gt;&lt;/font&gt;" style="text;html=1;align=center;verticalAlign=middle;resizable=0;points=[];autosize=1;strokeColor=none;fillColor=none;" vertex="1" parent="1">
          <mxGeometry x="-280" y="363" width="140" height="30" as="geometry" />
        </mxCell>
        <mxCell id="xVHBVLIF-bn0H8TLXXED-37" value="" style="endArrow=classic;html=1;rounded=0;exitX=1;exitY=0.5;exitDx=0;exitDy=0;" edge="1" parent="1" source="xVHBVLIF-bn0H8TLXXED-2">
          <mxGeometry width="50" height="50" relative="1" as="geometry">
            <mxPoint x="-190" y="535" as="sourcePoint" />
            <mxPoint x="-360" y="545" as="targetPoint" />
          </mxGeometry>
        </mxCell>
        <mxCell id="xVHBVLIF-bn0H8TLXXED-54" style="edgeStyle=orthogonalEdgeStyle;rounded=0;orthogonalLoop=1;jettySize=auto;html=1;exitX=0.5;exitY=0;exitDx=0;exitDy=0;entryX=0;entryY=0.5;entryDx=0;entryDy=0;" edge="1" parent="1" source="xVHBVLIF-bn0H8TLXXED-40" target="xVHBVLIF-bn0H8TLXXED-47">
          <mxGeometry relative="1" as="geometry" />
        </mxCell>
        <mxCell id="xVHBVLIF-bn0H8TLXXED-40" value="Cache" style="rounded=0;whiteSpace=wrap;html=1;rotation=90;" vertex="1" parent="1">
          <mxGeometry x="-160" y="525" width="225" height="60" as="geometry" />
        </mxCell>
        <mxCell id="xVHBVLIF-bn0H8TLXXED-41" value="" style="endArrow=classic;html=1;rounded=0;" edge="1" parent="1">
          <mxGeometry width="50" height="50" relative="1" as="geometry">
            <mxPoint x="-120" y="555" as="sourcePoint" />
            <mxPoint x="-80" y="555" as="targetPoint" />
          </mxGeometry>
        </mxCell>
        <mxCell id="xVHBVLIF-bn0H8TLXXED-42" value="Payments " style="rounded=0;whiteSpace=wrap;html=1;shape=cloud;perimeter=ellipsePerimeter;" vertex="1" parent="1">
          <mxGeometry x="110" y="230" width="140" height="85" as="geometry" />
        </mxCell>
        <mxCell id="xVHBVLIF-bn0H8TLXXED-58" style="edgeStyle=orthogonalEdgeStyle;rounded=0;orthogonalLoop=1;jettySize=auto;html=1;exitX=0.75;exitY=0;exitDx=0;exitDy=0;entryX=0.5;entryY=1;entryDx=0;entryDy=0;" edge="1" parent="1" source="xVHBVLIF-bn0H8TLXXED-43" target="xVHBVLIF-bn0H8TLXXED-55">
          <mxGeometry relative="1" as="geometry" />
        </mxCell>
        <mxCell id="xVHBVLIF-bn0H8TLXXED-67" style="edgeStyle=orthogonalEdgeStyle;rounded=0;orthogonalLoop=1;jettySize=auto;html=1;exitX=0.75;exitY=1;exitDx=0;exitDy=0;entryX=0.5;entryY=0;entryDx=0;entryDy=0;" edge="1" parent="1" source="xVHBVLIF-bn0H8TLXXED-43" target="xVHBVLIF-bn0H8TLXXED-66">
          <mxGeometry relative="1" as="geometry" />
        </mxCell>
        <mxCell id="xVHBVLIF-bn0H8TLXXED-73" style="edgeStyle=orthogonalEdgeStyle;rounded=0;orthogonalLoop=1;jettySize=auto;html=1;exitX=1;exitY=1;exitDx=0;exitDy=0;entryX=0;entryY=0.5;entryDx=0;entryDy=0;" edge="1" parent="1" source="xVHBVLIF-bn0H8TLXXED-43" target="xVHBVLIF-bn0H8TLXXED-72">
          <mxGeometry relative="1" as="geometry">
            <Array as="points">
              <mxPoint x="-120" y="675" />
              <mxPoint x="-90" y="675" />
              <mxPoint x="-90" y="790" />
            </Array>
          </mxGeometry>
        </mxCell>
        <mxCell id="xVHBVLIF-bn0H8TLXXED-43" value="" style="swimlane;startSize=0;" vertex="1" parent="1">
          <mxGeometry x="-300" y="355" width="180" height="360" as="geometry" />
        </mxCell>
        <mxCell id="xVHBVLIF-bn0H8TLXXED-46" value="" style="endArrow=none;html=1;rounded=0;" edge="1" parent="xVHBVLIF-bn0H8TLXXED-43">
          <mxGeometry width="50" height="50" relative="1" as="geometry">
            <mxPoint x="90" y="360" as="sourcePoint" />
            <mxPoint x="90" y="340" as="targetPoint" />
          </mxGeometry>
        </mxCell>
        <mxCell id="xVHBVLIF-bn0H8TLXXED-47" value="" style="swimlane;startSize=0;" vertex="1" parent="1">
          <mxGeometry x="30" y="435" width="150" height="240" as="geometry" />
        </mxCell>
        <mxCell id="xVHBVLIF-bn0H8TLXXED-50" value="&lt;font style=&quot;font-size: 14px;&quot;&gt;Database&lt;/font&gt;" style="text;html=1;align=center;verticalAlign=middle;resizable=0;points=[];autosize=1;strokeColor=none;fillColor=none;" vertex="1" parent="xVHBVLIF-bn0H8TLXXED-47">
          <mxGeometry x="35" y="20" width="80" height="30" as="geometry" />
        </mxCell>
        <mxCell id="xVHBVLIF-bn0H8TLXXED-74" value="DBMS" style="shape=datastore;whiteSpace=wrap;html=1;boundedLbl=1;backgroundOutline=1;size=15;" vertex="1" parent="xVHBVLIF-bn0H8TLXXED-47">
          <mxGeometry x="45" y="55" width="60" height="80" as="geometry" />
        </mxCell>
        <mxCell id="xVHBVLIF-bn0H8TLXXED-75" value="Unstructured dB" style="shape=cylinder3;whiteSpace=wrap;html=1;boundedLbl=1;backgroundOutline=1;size=15;" vertex="1" parent="xVHBVLIF-bn0H8TLXXED-47">
          <mxGeometry x="20" y="150" width="110" height="80" as="geometry" />
        </mxCell>
        <mxCell id="xVHBVLIF-bn0H8TLXXED-57" value="" style="edgeStyle=orthogonalEdgeStyle;rounded=0;orthogonalLoop=1;jettySize=auto;html=1;" edge="1" parent="1" source="xVHBVLIF-bn0H8TLXXED-55" target="xVHBVLIF-bn0H8TLXXED-56">
          <mxGeometry relative="1" as="geometry" />
        </mxCell>
        <mxCell id="xVHBVLIF-bn0H8TLXXED-55" value="logstash" style="rounded=0;whiteSpace=wrap;html=1;" vertex="1" parent="1">
          <mxGeometry x="-230" y="255" width="120" height="60" as="geometry" />
        </mxCell>
        <mxCell id="xVHBVLIF-bn0H8TLXXED-61" style="edgeStyle=orthogonalEdgeStyle;rounded=0;orthogonalLoop=1;jettySize=auto;html=1;exitX=0.5;exitY=0;exitDx=0;exitDy=0;" edge="1" parent="1" source="xVHBVLIF-bn0H8TLXXED-56" target="xVHBVLIF-bn0H8TLXXED-59">
          <mxGeometry relative="1" as="geometry" />
        </mxCell>
        <mxCell id="xVHBVLIF-bn0H8TLXXED-56" value="Elastic Search &lt;br&gt;(Analytics)" style="rounded=0;whiteSpace=wrap;html=1;" vertex="1" parent="1">
          <mxGeometry x="-55" y="255" width="120" height="60" as="geometry" />
        </mxCell>
        <mxCell id="xVHBVLIF-bn0H8TLXXED-65" style="edgeStyle=orthogonalEdgeStyle;rounded=0;orthogonalLoop=1;jettySize=auto;html=1;exitX=0.5;exitY=0;exitDx=0;exitDy=0;entryX=-0.022;entryY=0.528;entryDx=0;entryDy=0;entryPerimeter=0;" edge="1" parent="1" source="xVHBVLIF-bn0H8TLXXED-59" target="xVHBVLIF-bn0H8TLXXED-43">
          <mxGeometry relative="1" as="geometry" />
        </mxCell>
        <mxCell id="xVHBVLIF-bn0H8TLXXED-71" style="edgeStyle=orthogonalEdgeStyle;rounded=0;orthogonalLoop=1;jettySize=auto;html=1;exitX=0.75;exitY=1;exitDx=0;exitDy=0;entryX=1;entryY=0.75;entryDx=0;entryDy=0;" edge="1" parent="1" source="xVHBVLIF-bn0H8TLXXED-59" target="xVHBVLIF-bn0H8TLXXED-2">
          <mxGeometry relative="1" as="geometry" />
        </mxCell>
        <mxCell id="xVHBVLIF-bn0H8TLXXED-59" value="Varnish&lt;br&gt;(Reverse&lt;br&gt;Cache&lt;br&gt;proxy)" style="whiteSpace=wrap;html=1;rounded=0;rotation=90;" vertex="1" parent="1">
          <mxGeometry x="-410" y="515" width="120" height="60" as="geometry" />
        </mxCell>
        <mxCell id="xVHBVLIF-bn0H8TLXXED-66" value="Mail/SMS" style="rounded=0;whiteSpace=wrap;html=1;" vertex="1" parent="1">
          <mxGeometry x="-240" y="805" width="120" height="60" as="geometry" />
        </mxCell>
        <mxCell id="xVHBVLIF-bn0H8TLXXED-72" value="ML Suggestion/ Recommendation" style="rounded=0;whiteSpace=wrap;html=1;" vertex="1" parent="1">
          <mxGeometry x="-40" y="735" width="150" height="110" as="geometry" />
        </mxCell>
        <mxCell id="xVHBVLIF-bn0H8TLXXED-76" value="User/Passenger" style="shape=actor;whiteSpace=wrap;html=1;" vertex="1" parent="1">
          <mxGeometry x="-590" y="515" width="40" height="60" as="geometry" />
        </mxCell>
        <mxCell id="xVHBVLIF-bn0H8TLXXED-79" value="&lt;h1&gt;High Level Diagram for travel agency management&lt;br&gt;&lt;/h1&gt;" style="text;html=1;strokeColor=none;fillColor=none;spacing=5;spacingTop=-20;whiteSpace=wrap;overflow=hidden;rounded=0;" vertex="1" parent="1">
          <mxGeometry x="-280" y="100" width="335" height="80" as="geometry" />
        </mxCell>
      </root>
    </mxGraphModel>
  </diagram>
</mxfile>
